<svg width="100" height="100" xmlns="http://www.w3.org/2000/svg">
 <defs>
  <style type="text/css">.cls-1{fill:#454538}.cls-2{fill:#a3a39e}.cls-3{fill:none}</style>
 </defs>
 <g>
  <title>background</title>
  <rect fill="none" id="canvas_background" height="402" width="582" y="-1" x="-1"/>
 </g>
 <g>
  <title>Layer 1</title>
  <g id="Group_9053">
   <g id="Group_9051">
    <ellipse ry="4" rx="12" class="cls-1" cy="56" cx="80" id="Ellipse_640"/>
    <ellipse ry="4" rx="12" class="cls-1" cy="68" cx="64" id="Ellipse_641"/>
    <path class="cls-1" d="m32,24l14,0l0,14l-14,0l0,-14z" id="Rectangle_4706"/>
   </g>
   <g id="Group_9052">
    <path class="cls-2" d="m12,60l2,0l0,4l-2,0l0,-4z" id="Rectangle_4707"/>
    <path class="cls-2" d="m92.046,57.994a2.767,2.767 0 0 0 0.954,-1.994c0,-3.283 -6.54,-5 -13,-5s-13,1.717 -13,5a2.767,2.767 0 0 0 0.954,1.994a2.573,2.573 0 0 0 0,4a3.171,3.171 0 0 0 -0.774,1.151q-0.58,-0.052 -1.18,-0.085l0,-24.06l5,0l0,-16l-18.356,0a8.993,8.993 0 1 0 -13.644,-11.1a8.994,8.994 0 1 0 -13.644,11.1l-18.356,0l0,16l5,0l0,17l2,0l0,-17l50,0l0,24c-6.46,0 -13,1.717 -13,5a2.767,2.767 0 0 0 0.954,1.994a2.573,2.573 0 0 0 0,4a3.325,3.325 0 0 0 -0.728,1.006l-37.226,0l0,-7l-2,0l0,9l39.23,0a3.369,3.369 0 0 0 0.724,0.994a2.573,2.573 0 0 0 0,4a2.573,2.573 0 0 0 0,4a2.768,2.768 0 0 0 -0.954,2.006c0,3.283 6.54,5 13,5c5.874,0 11.8,-1.424 12.826,-4.15c1.042,0.093 2.106,0.15 3.174,0.15c6.46,0 13,-1.717 13,-5a2.768,2.768 0 0 0 -0.954,-2.006a2.573,2.573 0 0 0 0,-4a2.573,2.573 0 0 0 0,-4a2.573,2.573 0 0 0 0,-4a2.573,2.573 0 0 0 0,-4a2.573,2.573 0 0 0 0,-4a2.573,2.573 0 0 0 0,-4zm-61.046,-20.994l-22,0l0,-12l22,0l0,12zm-7,-33a7,7 0 0 1 14,0l0,7l-7,0a7.008,7.008 0 0 1 -7,-7zm21,21l-12,0l0,0l12,0zm-5,-14l0,-7a7,7 0 1 1 7,7l-7,0zm7,14l0,0l22,0l0,12l-22,0l0,-12zm4,39a2.311,2.311 0 0 0 0.061,0.515a2.2,2.2 0 0 1 -0.061,11.485l0,-12zm13,15c-7.117,0 -11,-1.982 -11,-3c0,-0.241 0.247,-0.539 0.678,-0.849c2.501,13.219 6.422,13.849 10.322,13.849s7.821,-0.63 10.322,-1.849c0.431,0.31 0.678,0.608 0.678,0.849c0,1.018 -3.883,3 -11,3l0,-12zm0,-4c-7.117,0 -11,-1.982 -11,-3c0,-0.241 0.247,-0.539 0.678,-0.849c2.501,13.219 6.422,13.849 10.322,13.849s7.821,-0.63 10.322,-1.849c0.431,0.31 0.678,0.608 0.678,0.849c0,1.018 -3.883,3 -11,3l0,-12zm0,-4c-7.117,0 -11,-1.982 -11,-3c0,-0.241 0.247,-0.539 0.678,-0.849c2.501,13.219 6.422,13.849 10.322,13.849s7.821,-0.63 10.322,-1.849c0.431,0.31 0.678,0.608 0.678,0.849c0,1.018 -3.883,3 -11,3l0,-12zm0,-4c-7.117,0 -11,-1.982 -11,-3c0,-0.241 0.247,-0.539 0.678,-0.849c2.501,13.219 6.422,13.849 10.322,13.849s7.821,-0.63 10.322,-1.849c0.431,0.31 0.678,0.608 0.678,0.849c0,1.018 -3.883,3 -11,3l0,-12zm0,-4c-7.117,0 -11,-1.982 -11,-3c0,-0.241 0.247,-0.539 0.678,-0.849c2.501,13.219 6.422,13.849 10.322,13.849s7.821,-0.63 10.322,-1.849c0.431,0.31 0.678,0.608 0.678,0.849c0,1.018 -3.883,3 -11,3l0,-12zm0,-4c-7.117,0 -11,-1.982 -11,-3s3.883,-3 11,-3s11,1.982 11,3s-3.883,3 -11,3zm16,16c-1.207,0 -2.3,-0.068 -3.313,-0.168a3.446,3.446 0 0 0 -0.641,-0.838a3.219,3.219 0 0 0 0.781,-1.151c1.041,0.1 2.1,0.157 3.173,0.157c3.9,0 7.821,-0.63 10.322,-1.849c0.431,0.31 0.678,0.608 0.678,0.849c0,1.018 -3.883,3 -11,3zm0,-4c-1.207,0 -2.3,-0.068 -3.313,-0.168a3.446,3.446 0 0 0 -0.641,-0.838a3.219,3.219 0 0 0 0.781,-1.151c1.041,0.1 2.1,0.157 3.173,0.157c3.9,0 7.821,-0.63 10.322,-1.849c0.431,0.31 0.678,0.608 0.678,0.849c0,1.018 -3.883,3 -11,3zm0,-4c-1.207,0 -2.3,-0.068 -3.313,-0.168a3.446,3.446 0 0 0 -0.641,-0.838a3.219,3.219 0 0 0 0.781,-1.151c1.041,0.1 2.1,0.157 3.173,0.157c3.9,0 7.821,-0.63 10.322,-1.849c0.431,0.31 0.678,0.608 0.678,0.849c0,1.018 -3.883,3 -11,3zm0,-4c-1.207,0 -2.3,-0.068 -3.313,-0.168a3.446,3.446 0 0 0 -0.641,-0.838a3.219,3.219 0 0 0 0.781,-1.151c1.041,0.1 2.1,0.157 3.173,0.157c3.9,0 7.821,-0.63 10.322,-1.849c0.431,0.31 0.678,0.608 0.678,0.849c0,1.018 -3.883,3 -11,3zm0,-4c-1.207,0 -2.3,-0.068 -3.313,-0.168a3.446,3.446 0 0 0 -0.641,-0.838a3.219,3.219 0 0 0 0.781,-1.151c1.041,0.1 2.1,0.157 3.173,0.157c3.9,0 7.821,-0.63 10.322,-1.849c0.431,0.31 0.678,0.608 0.678,0.849c0,1.018 -3.883,3 -11,3zm0,-4c-1.2,0 -2.287,-0.067 -3.3,-0.166c-0.621,-1.162 -2.175,-2.062 -4.213,-2.7a31.139,31.139 0 0 0 7.513,12.866c3.9,0 7.821,-0.63 10.322,-1.849c0.431,0.31 0.678,0.608 0.678,0.849c0,1.018 -3.883,3 -11,3l0,-12zm-10.632,-3.583a2.722,2.722 0 0 1 0.31,-0.266a13.563,13.563 0 0 0 1.826,0.7a26.483,26.483 0 0 0 -2.136,-0.434zm10.632,11.583c-7.117,0 -11,-1.982 -11,-3c0,-0.241 0.247,-0.539 0.678,-0.849c2.501,1.219 6.422,1.849 10.322,1.849s7.821,-0.63 10.322,-1.849c0.431,0.31 0.678,0.608 0.678,0.849c0,1.018 -3.883,3 -11,3zm-10.632,-15.583c-7.117,0 -11,-1.982 -11,-3s3.883,-3 11,-3s11,1.982 11,3s-3.883,3 -11,3z" id="Path_19001"/>
   </g>
  </g>
  <path class="cls-3" d="m0,0l100,0l0,100l-100,0l0,-100z" id="Rectangle_4709"/>
  <text xml:space="preserve" text-anchor="start" font-family="Helvetica, Arial, sans-serif" font-size="40" id="svg_1" y="72" x="23.5" stroke-width="0" stroke="#000" fill="#a3a39e">E</text>
 </g>
</svg>