<svg width="100" height="100" xmlns="http://www.w3.org/2000/svg">
 <defs>
  <style type="text/css">.cls-1{fill:#d6d6d6}.cls-2{fill:#666}.cls-3{fill:none}</style>
 </defs>
 <g>
  <title>background</title>
  <rect fill="none" id="canvas_background" height="402" width="582" y="-1" x="-1"/>
 </g>
 <g>
  <title>Layer 1</title>
  <g id="Group_9015">
   <path class="cls-1" d="m50,26a24,24 0 1 0 24,24a24,24 0 0 0 -24,-24zm0,42a18,18 0 1 1 18,-18a18,18 0 0 1 -18,18z" id="Path_18970"/>
   <g id="Group_9014">
    <g id="Group_9013">
     <path class="cls-2" d="m50,31a19,19 0 1 0 19,19a19.021,19.021 0 0 0 -19,-19zm0,36a17,17 0 1 1 17,-17a17.019,17.019 0 0 1 -17,17z" id="Path_18972"/>
     <path class="cls-2" d="m83,56l2,0l0,4l-2,0l0,-4z" id="Rectangle_4664"/>
     <path class="cls-2" d="m83,44l2,0l0,8l-2,0l0,-8z" id="Rectangle_4665"/>
     <path class="cls-2" d="m15,48l2,0l0,8l-2,0l0,-8z" id="Rectangle_4666"/>
     <path class="cls-2" d="m15,40l2,0l0,4l-2,0l0,-4z" id="Rectangle_4667"/>
     <path class="cls-2" d="m95.162,71l-10.162,0l0,-7l-2,0l0,9l7.838,0l-14.838,17.456l-14.838,-17.456l6.838,0l0,-2l-4.461,0a24.989,24.989 0 0 0 -22.4,-44.374l-17.139,-20.17l-19.162,22.544l10.162,0l0,7l2,0l0,-9l-7.838,0l14.838,-17.456l14.838,17.456l-6.838,0l0,2l4.461,0a24.989,24.989 0 0 0 22.4,44.374l17.139,20.17l19.162,-22.544zm-68.162,-21a23,23 0 1 1 23,23a23.026,23.026 0 0 1 -23,-23z" id="Path_18973"/>
    </g>
   </g>
  </g>
  <path class="cls-3" d="m0,0l100,0l0,100l-100,0l0,-100z" id="Rectangle_4668"/>
  <text xml:space="preserve" text-anchor="start" font-family="Helvetica, Arial, sans-serif" font-size="30" id="svg_1" y="60" x="39.5" stroke-width="0" stroke="#000" fill="#a09ea5">E</text>
 </g>
</svg>