/* XPM */
static char *_955feb173954b54efb94b14d6d1419c[] = {
/* columns rows colors chars-per-pixel */
"16 13 81 1 ",
"  c None",
". c black",
"X c #030100",
"o c #020101",
"O c #030302",
"+ c #070300",
"@ c #060501",
"# c #070601",
"$ c #060402",
"% c #050603",
"& c #070705",
"* c #080501",
"= c #0A0903",
"- c #0E0C05",
"; c #110B02",
": c #161004",
"> c #171304",
", c #1F1305",
"< c #1D1404",
"1 c #16140B",
"2 c #1E1808",
"3 c #1E1A0B",
"4 c #201806",
"5 c #231907",
"6 c #291C07",
"7 c #251D0B",
"8 c #271F0A",
"9 c #23220F",
"0 c #352B0E",
"q c #3A2D0C",
"w c #3C2D0F",
"e c #3F310D",
"r c #2B2613",
"t c #322A10",
"y c #362E12",
"u c #3E3210",
"i c #3B341A",
"p c #452F09",
"a c #42320B",
"s c #4D3810",
"d c #4C3E16",
"f c #483D18",
"g c #4B3F19",
"h c #62460F",
"j c #68551C",
"k c #6D591E",
"l c #735212",
"z c #755413",
"x c #5D552A",
"c c #61592C",
"v c #7D7232",
"b c #80580D",
"n c #846015",
"m c #886015",
"M c #8A6518",
"N c #8D6B1C",
"B c #986811",
"V c #9C741B",
"C c #9A761E",
"Z c #8A6621",
"A c #86763C",
"S c #8C7E3B",
"D c #967B32",
"F c #94833A",
"G c #96813E",
"H c #BD942E",
"J c #AB9136",
"K c #BC9730",
"L c #B59B3D",
"P c #D3A229",
"I c #F8B12C",
"U c #FECD2E",
"Y c #E2C33A",
"T c #9A8946",
"R c #AE9647",
"E c #B19C41",
"W c #C0B458",
"Q c #E7B541",
"! c #EFD363",
"~ c #FEEB61",
"^ c #FAEA68",
/* pixels */
"                ",
"      ScxF      ",
"    N0X&9XuC    ",
"   M-X%E~wX<V   ",
"   yX@HQZ6XXf   ",
"  G&XhI<XXXX1R  ",
"  lXXD!WfXXX*m  ",
"  bXXv^tX3L7@B  ",
"   rX:YKs4g@i   ",
"   A@X2PUpX;T   ",
"    z2X:aX6n    ",
"     Jjeqc      ",
"                "
};
