/* XPM */
static char *a58b347dbafb48a3dc9939e579fbb26b[] = {
/* columns rows colors chars-per-pixel */
"32 26 202 2 ",
"   c None",
".  c black",
"X  c #000001",
"o  c #020100",
"O  c #030200",
"+  c #000002",
"@  c #010202",
"#  c #060400",
"$  c #070401",
"%  c #080602",
"&  c #090602",
"*  c #080702",
"=  c #090703",
"-  c #0C0600",
";  c #0A0903",
":  c #0E0D08",
">  c #0E0E0A",
",  c #100C03",
"<  c #170E00",
"1  c #170F03",
"2  c #120E05",
"3  c #110E06",
"4  c #1B1502",
"5  c #181407",
"6  c #1B1607",
"7  c #131109",
"8  c #1B1609",
"9  c #1B1709",
"0  c #1E1B0D",
"q  c #2C1C03",
"w  c #251B08",
"e  c #271B08",
"r  c #241D09",
"t  c #261D0A",
"y  c #201D0E",
"u  c #25200D",
"i  c #2B220B",
"p  c #2E230A",
"a  c #342506",
"s  c #30250A",
"d  c #30250B",
"f  c #33260B",
"g  c #3F2B09",
"h  c #2D2812",
"j  c #2F2A14",
"k  c #302811",
"l  c #372C12",
"z  c #3A3112",
"x  c #373118",
"c  c #3B3820",
"v  c #50380D",
"b  c #583E0D",
"n  c #463B15",
"m  c #4F3D12",
"M  c #453818",
"N  c #543F11",
"B  c #4F4314",
"V  c #5E4716",
"C  c #594B1B",
"Z  c #684305",
"A  c #6E4A0F",
"S  c #604712",
"D  c #674E16",
"F  c #7A631F",
"G  c #7F661D",
"H  c #574E25",
"J  c #584F26",
"K  c #5B5120",
"L  c #64592A",
"P  c #665B2E",
"I  c #6E6E2F",
"U  c #7E6423",
"Y  c #7A662A",
"T  c #7C652A",
"R  c #7F6E31",
"E  c #905E07",
"W  c #805711",
"Q  c #865D11",
"!  c #895F17",
"~  c #8F6616",
"^  c #86631B",
"/  c #8C6B1A",
"(  c #8D691F",
")  c #956813",
"_  c #92661B",
"`  c #926F1D",
"'  c #94711D",
"]  c #97721D",
"[  c #A77216",
"{  c #AB7F1D",
"}  c #AF7F1D",
"|  c #886B24",
" . c #8E6F26",
".. c #897024",
"X. c #927520",
"o. c #977924",
"O. c #947F30",
"+. c #977F33",
"@. c #937E34",
"#. c #A27D22",
"$. c #B6811A",
"%. c #BC8319",
"&. c #908239",
"*. c #9D8D3C",
"=. c #A68124",
"-. c #A68129",
";. c #A9802A",
":. c #BE8B20",
">. c #B28228",
",. c #BC9523",
"<. c #BF972D",
"1. c #A38435",
"2. c #A48C35",
"3. c #AC963B",
"4. c #B49430",
"5. c #C28E1E",
"6. c #D4951E",
"7. c #E5A01F",
"8. c #EBA41A",
"9. c #F4AB1E",
"0. c #D49921",
"q. c #D79922",
"w. c #C79E31",
"e. c #C39E3C",
"r. c #D8A42A",
"t. c #C8A43C",
"y. c #C4AC3C",
"u. c #DCAD30",
"i. c #D5AE38",
"p. c #EFB428",
"a. c #EAB32E",
"s. c #FEB521",
"d. c #F4B52C",
"f. c #FAB12F",
"g. c #FEB62E",
"h. c #F2BD2C",
"j. c #E7AB36",
"k. c #E5B635",
"l. c #EFB435",
"z. c #EEBA32",
"x. c #F8B430",
"c. c #F0B73E",
"v. c #F4BA3A",
"b. c #FEBF3A",
"n. c #FEC024",
"m. c #FEC42E",
"M. c #FED939",
"N. c #FEE53D",
"B. c #A08E48",
"V. c #AE9647",
"C. c #A5964C",
"Z. c #B19D48",
"A. c #AD9D53",
"S. c #B0A759",
"D. c #CCAD4C",
"F. c #CAB143",
"G. c #C8B04E",
"H. c #DAB743",
"J. c #DBBC43",
"K. c #D1B556",
"L. c #E5BC42",
"P. c #ECBE42",
"I. c #E7BC4B",
"U. c #F1BA45",
"Y. c #FABB40",
"T. c #D1BC63",
"R. c #DCC35A",
"E. c #ECC443",
"W. c #EBC446",
"Q. c #F4C846",
"!. c #F6C74D",
"~. c #FED645",
"^. c #FDD049",
"/. c #F6CB51",
"(. c #F5CA56",
"). c #F6CF54",
"_. c #FECD54",
"`. c #EBD656",
"'. c #E9D358",
"]. c #F3D057",
"[. c #FED552",
"{. c #FEDE50",
"}. c #FEDC55",
"|. c #DAC562",
" X c #DBC662",
".X c #D5C46A",
"XX c #E7D267",
"oX c #EED96A",
"OX c #F2DF68",
"+X c #F8DA68",
"@X c #EDDB76",
"#X c #FAE56D",
"$X c #FEE66F",
"%X c #FEF766",
"&X c #F5E072",
"*X c #F9E472",
"=X c #F9E575",
"-X c #FEEF72",
";X c #FEF174",
":X c #FEFE73",
">X c #FEFE79",
",X c #FEFA80",
/* pixels */
"                                                                ",
"                                                                ",
"                          $XXX|.|.oX-X                          ",
"                    ~.F.&.H j 0 y x L *.J.                      ",
"                  u.U , . . . . . . . . t o.z.                  ",
"                :.p . . . . . K I h . . . . B q.                ",
"              %.1 . . . . . . '.:XG.M . . . . g 6.              ",
"            r.d . . . . . u 3.].(.}.;.. . . . . D a.            ",
"            ... . . . . x W.[._.U.j.! . . . . . . 4.            ",
"          R.0 . . . . 5 k.m.Y._ q - $ . . . . . . J #X          ",
"          A.. . . . . / s.f.A . . . . . . . . . . : T.          ",
"          T . . . . = q.g.>.. . . . . . . . . . . . 1.          ",
"        l.V . . . . t c.!.D.C.S.R . . . . . . . . . |           ",
"        7.b . . . . k +X&X=X;X>Xt.. . . ; = . . . o Q           ",
"          Z . . . . 9 OX,XZ.e d e . . 3 +.+.8 . . . E           ",
"          ~ . . . . . y.%X`.4 . . . . Y )./. .. . o }           ",
"          e.= . . . . B N.{.i.a . . . = | U $ . . l I.          ",
"          *XP . . . . . ' M.^.P.-.^ v . $ . . . . B.            ",
"            .X7 . . . . . G h.d.x.m.[ . . . . . c @X            ",
"              V.. . . . . . i d.n.9.W . . . . 7 K.              ",
"              v.) . . . . . . ' ,.S . . . . 1 $.                ",
"                8.=.d . . . . . . . . . . N 5.                  ",
"                    H.&.n 3 . . . . 5 C 2.W.                    ",
"                        L.<.#.' ' =.w.Q.                        ",
"                                                                ",
"                                                                "
};
