/* XPM */
static char *ae32df195c064071938e4e3cb62bfeb3[] = {
/* columns rows colors chars-per-pixel */
"64 53 219 2 ",
"   c None",
".  c #000000",
"X  c #0A0602",
"o  c #0D0904",
"O  c #0E0D09",
"+  c #130E06",
"@  c #1B1205",
"#  c #1B1509",
"$  c #1E190C",
"%  c #16130A",
"&  c #1D1B10",
"*  c #211709",
"=  c #231C0C",
"-  c #2A1E0A",
";  c #261A07",
":  c #211F13",
">  c #2C220C",
",  c #27210D",
"<  c #34270D",
"1  c #3A2A0B",
"2  c #282413",
"3  c #352B11",
"4  c #3D2E11",
"5  c #3E3112",
"6  c #39331A",
"7  c #482F0A",
"8  c #46300A",
"9  c #4B330C",
"0  c #5A3A07",
"q  c #433513",
"w  c #4B3A13",
"e  c #483B18",
"r  c #59471D",
"t  c #58481B",
"y  c #64430B",
"u  c #634B14",
"i  c #664C16",
"p  c #68521A",
"a  c #795414",
"s  c #755B1C",
"d  c #7A5818",
"f  c #7C601E",
"g  c #564E29",
"h  c #5D5221",
"j  c #4D4628",
"k  c #675A29",
"l  c #735F22",
"z  c #7A692B",
"x  c #7B6626",
"c  c #756937",
"v  c #8D6414",
"b  c #82621D",
"n  c #8D6B1C",
"m  c #956B1A",
"M  c #9C731E",
"N  c #A56D0F",
"B  c #BA7909",
"V  c #B47918",
"C  c #876C25",
"Z  c #8F7020",
"A  c #9D7820",
"S  c #83743A",
"D  c #8E7B3B",
"F  c #967C33",
"G  c #A27D25",
"H  c #8B7C42",
"J  c #BA8018",
"K  c #96812F",
"L  c #998739",
"P  c #AE8927",
"I  c #AD8526",
"U  c #B98922",
"Y  c #B38D28",
"T  c #A68C39",
"R  c #BA8F32",
"E  c #B79635",
"W  c #AA9635",
"Q  c #D78E0C",
"!  c #C68517",
"~  c #D3951C",
"^  c #DC991A",
"/  c #EA9D1B",
"(  c #E69A17",
")  c #F39D07",
"_  c #EBA41B",
"`  c #EDA91E",
"'  c #FEAF1D",
"]  c #F4A516",
"[  c #FFB41D",
"{  c #F8A40D",
"}  c #C68F22",
"|  c #CB9523",
" . c #CE9923",
".. c #C99C2E",
"X. c #C39524",
"o. c #D79E27",
"O. c #C89E30",
"+. c #CFA42B",
"@. c #DBA92E",
"#. c #D7A427",
"$. c #CEA73B",
"%. c #DDAB33",
"&. c #D0A93F",
"*. c #D6A833",
"=. c #DAB337",
"-. c #EBA626",
";. c #ECAD24",
":. c #E4AC2C",
">. c #EBA72C",
",. c #F5AB23",
"<. c #F6AE28",
"1. c #ECB32C",
"2. c #EEBA29",
"3. c #E5B12E",
"4. c #F3B427",
"5. c #FCB126",
"6. c #FFBA24",
"7. c #F3B629",
"8. c #FBB32F",
"9. c #FDBD2C",
"0. c #F1B82A",
"q. c #EDAD32",
"w. c #E7AD33",
"e. c #ECB434",
"r. c #EEB73F",
"t. c #EEBC3C",
"y. c #E5B835",
"u. c #FBB736",
"i. c #FABB3B",
"p. c #F5B637",
"a. c #FFC22B",
"s. c #F9C62E",
"d. c #EDC239",
"f. c #FDC432",
"g. c #FECD35",
"h. c #FDC539",
"j. c #F4C63A",
"k. c #FFD63A",
"l. c #FFD93D",
"z. c #FDD134",
"x. c #9F8D42",
"c. c #A39447",
"v. c #AC984B",
"b. c #B9A546",
"n. c #CEAA43",
"m. c #C1A84A",
"M. c #D5AD47",
"N. c #CCB446",
"B. c #D2B048",
"V. c #CFB354",
"C. c #D7BC55",
"Z. c #EEBC43",
"A. c #ECBE48",
"S. c #E4BA46",
"D. c #F1BB43",
"F. c #E0BC53",
"G. c #D2BE61",
"H. c #C2B562",
"J. c #DEC456",
"K. c #DAC048",
"L. c #E7C143",
"P. c #EAC042",
"I. c #EFC14A",
"U. c #F6C542",
"Y. c #FEC343",
"T. c #F1C24C",
"R. c #F7CC49",
"E. c #FEDE46",
"W. c #FDD14B",
"Q. c #FFDC4C",
"!. c #F9D746",
"~. c #EAC856",
"^. c #F0C755",
"/. c #F4CC54",
"(. c #FECC52",
"). c #F2C75A",
"_. c #F1CB5C",
"`. c #EED053",
"'. c #FFD452",
"]. c #FFDC54",
"[. c #F2D45E",
"{. c #FCDC5E",
"}. c #F6D45A",
"|. c #FFE245",
" X c #FFE44B",
".X c #FFEB40",
"XX c #FDE25B",
"oX c #FFE959",
"OX c #FFF35B",
"+X c #D7C467",
"@X c #E4CC63",
"#X c #E5CC6A",
"$X c #F3CD64",
"%X c #E8D26A",
"&X c #FCDE63",
"*X c #F3D768",
"=X c #F4DD6B",
"-X c #F0D366",
";X c #E1CD73",
":X c #E9D473",
">X c #FBE261",
",X c #FFEC63",
"<X c #FCE46B",
"1X c #FEED6A",
"2X c #F7E369",
"3X c #FFF367",
"4X c #FFF46B",
"5X c #FFFD6B",
"6X c #F5E473",
"7X c #FDEB74",
"8X c #F4E57A",
"9X c #FBEB7A",
"0X c #F9E473",
"qX c #FFF276",
"wX c #FFF37C",
"eX c #FFF978",
"rX c #FFF483",
"tX c #FFFF8B",
"yX c #FFFF85",
/* pixels */
"                                                                                                                                ",
"                                                                                                                                ",
"                                                                                                                                ",
"                                                                                                                                ",
"                                                            +X:X%X+X                                                            ",
"                                                  %X<X7XeXwXqX7X7XwXeXqX1X=X#X                                                  ",
"                                            J.{.3X>Xm.S g 6 2 = = 2 j k x.J.1X,X[.                                              ",
"                                        =.!. XE r % X . . . . . . . . . . . 3 C L. Xd.                                          ",
"                                      d.l.P 3 . . . . . . . . . . . . . . . . . o p y.!.=.                                      ",
"                                  +.g.*.e . . . . . . . . . . . . . . . . . . . . . o Z g.e.                                    ",
"                                o.f.A + . . . . . . . . . . . . . . . . . . . . . . . . 9 :.7.                                  ",
"                              ~ 6.d . . . . . . . . . . . . z W T c.L + . . . . . . . . . = | ,.                                ",
"                            J [ i . . . . . . . . . . . . . N.5X4X5X>X+ . . . . . . . . . . + ! _                               ",
"                          J [ d . . . . . . . . . . . . . . b.3X>X2X[.v.T > . . . . . . . . . # ^ o.                            ",
"                          7.I . . . . . . . . . . . . . . h ~.&X[._.^.'.'.w . . . . . . . . . . 4 9. .                          ",
"                        :.e.# . . . . . . . . . . . . q N.oX}.^.I.Z.t.r.i.9 . . . . . . . . . . . f g.                          ",
"                        k.p . . . . . . . . . . . . x Q.].I.D.A.).).).A.u.7 . . . . . . . . . . . X *.y.                        ",
"                      d.*.X . . . . . . . . . . . x Q.R.r.Z._.$X(.Y.u.8.5.9 . . . . . . . . . . . . t |.                        ",
"                      3Xk . . . . . . . . . . . i Q.Y.q.r.$XY.<.J a 9 1 8 @ . . . . . . . . . . . . . J.}.                      ",
"                    @X=XO . . . . . . . . . . - j.h.q.q.).8.! 7 . . . . . . . . . . . . . . . . . . . c eX                      ",
"                    9Xc.. . . . . . . . . . . P h.-./ D.8.N O . . . . . . . . . . . . . . . . . . . . : wX#X                    ",
"                    tXg . . . . . . . . . . < f.] ( >.u.V X . . . . . . . . . . . . . . . . . . . . . . +X8X                    ",
"                  ~.<X: . . . . . . . . . . n 6./ / p.>.* . . . . . . . . . . . . . . . . . . . . . . . D &X                    ",
"                  S.M.. . . . . . . . . . X  .,.,.q.D.b . . . . . . . . . . . . . . . . . . . . . . . . r W.                    ",
"                  r.R . . . . . . . . . . = q.q.e.D.D.1 . X . . X . . . . . . . . . . . . . . . . . . . 4 Y.                    ",
"                  w.G . . . . . . . . . . q i.Z.D.^.^.M.V.C.G.+X+Xl . . . . . . . . . . . . . . . . . . - u...                  ",
"                  :.m . . . . . . . . . . e '.^._.$X-X0X9X9X9XrX4Xv . . . . . . . . . . . . . . . . . . = <.o.                  ",
"                  / m . . . . . . . . . . r &X*X=X0X8X9XwXwXqXqX,Xv . . . . . . . . . . . . . . . . . . # ` ~                   ",
"                  ( N . . . . . . . . . . e 7X8X8X9X8XB.&.n.&.&.=.d . . . . . . o z x X . . . . . . . . ; { J                   ",
"                  Q B . . . . . . . . . . , XX0X6X0X2X5 . . X . . X . . . . . . X }.^.. . . . . . . . . 1 )                     ",
"                  Q Q X . . . . . . . . . X C.OX2X<X5XK . . . . . . . . . . # x C ^.~.F F 5 . . . . . . y ]                     ",
"                  } 4.- . . . . . . . . . . K OXXX2X<X X< . . . . . . . . . 6 3XXX/./.].oXs . . . . . . m -.                    ",
"                    h.i . . . . . . . . . . 3 |.|.|.2X|.+.o . . . . . . . . # x Z A.S.x d - . . . . . X *.%.                    ",
"                    A.R . . . . . . . . . . . E .Xz.R.*Xz.X.@ . . . . . . . . . X U.A.. . . . . . . . 3 '.M.                    ",
"                    C.{.= . . . . . . . . . . - d.k.s.^.*Xf.#.u o . . . . . . . o b f X . . . . . . . F &X                      ",
"                      qXH . . . . . . . . . . . t l.z.2.d.*X/.f.| v y 0 y * . . . . . . . . . . . . % =X#X                      ",
"                      :XrX& . . . . . . . . . . . s k.z.2.1.A.~./.W.Y.i.9.9 . . . . . . . . . . . . H tX                        ",
"                        tXc.. . . . . . . . . . . . t d.z.0._ ( -.q.q.>.,.8 . . . . . . . . . . . 2 rX:X                        ",
"                        ;XtXj . . . . . . . . . . . . > Y s.s.;./ / ( ( ] 7 . . . . . . . . . . . H.rX                          ",
"                          6X8X& . . . . . . . . . . . . . 5 #.a.4.,.` ' 6.9 . . . . . . . . . . H tXG.                          ",
"                            &Xn.O . . . . . . . . . . . . . J f.4.4.;.M n = . . . . . . . . . h XXF.                            ",
"                              h.U o . . . . . . . . . . . . X.g.a.a.4.o . . . . . . . . . . 9 9.%.                              ",
"                              V ] B @ . . . . . . . . . . . 3 w e 9 q X . . . . . . . . . 0 { ^                                 ",
"                                  ] ^ 8 . . . . . . . . . . . . . . . . . . . . . . . o v [ ~                                   ",
"                                    :.f.Z @ . . . . . . . . . . . . . . . . . . . . w o.f.O.                                    ",
"                                      n.!.Z.x # . . . . . . . . . . . . . . . . e E Q.L.                                        ",
"                                          ~.].`.T t # . . . . . . . . . o 3 x &.].`.C.                                          ",
"                                              B.P.R.d.O.I b p i p s Z Y %.j.U.L.b.                                              ",
"                                                    $.@.3.1.1.0.1.1.:.:.*.                                                      ",
"                                                                                                                                ",
"                                                                                                                                ",
"                                                                                                                                ",
"                                                                                                                                "
};
